:FULLY-SPECIFIED
:FORCE-ALL-JOINTS-BE-3DOF
:DEGREES
917
root 2.69241 16.0654 32.3787 -0.29831 19.9993 361.058
lfemur -24.9917 22.4524 -14.821
ltibia 48.017 0 0
lfoot -13.2162 -6.80346 0
ltoes 14.5828 0 0
rfemur -22.1238 -9.41185 -4.76702
rtibia 70.8734 0 0
rfoot 4.88636 -24.9625 0
rtoes 35.1818 0 0
lowerback 2.70812 -1.71456 -3.39107
upperback 0.0862071 -2.39056 -2.6752
thorax -1.41899 -1.17349 -0.762481
lowerneck -6.94912 -6.68281 -2.18443
upperneck 4.53963 -9.06742 5.27865
head 3.0327 -4.36171 1.64899
lclavicle -5.66745e-17 2.49739e-14 0
lhumerus -52.1468 -36.8036 110.306
lradius 60.6122 0 0
lwrist 12.6938 0 0
lhand 31.1843 17.9936 0
lfingers 7.12502 0 0
lthumb 54.704 35.8692 0
rclavicle -5.66745e-17 2.49739e-14 0
rhumerus -50.2736 25.209 -101.964
rradius 122.592 0 0
rwrist -7.91814 0 0
rhand 20.4902 -0.325979 0
rfingers 7.12502 0 0
rthumb 45.1383 -745.402 0
918
root 2.62275 16.0422 32.4231 -0.125693 19.2201 361.239
lfemur -23.7491 20.9211 -13.9377
ltibia 45.9276 0 0
lfoot -12.7961 -8.96626 0
ltoes 14.6536 0 0
rfemur -22.3318 -9.06693 -4.88463
rtibia 69.3978 0 0
rfoot 4.83235 -23.86 0
rtoes 30.7278 0 0
lowerback 2.46269 -1.66347 -3.38832
upperback 0.0357472 -2.31396 -2.90881
thorax -1.33253 -1.13649 -1.0081
lowerneck -6.95961 -6.44879 -2.05991
upperneck 4.52032 -8.76757 5.31995
head 3.01436 -4.20945 1.65593
lclavicle -2.53083e-16 2.37364e-14 0
lhumerus -52.0862 -36.8789 109.96
lradius 60.4785 0 0
lwrist 12.9755 0 0
lhand 31.841 18.467 0
lfingers 7.12502 0 0
lthumb 55.2605 35.723 0
rclavicle -2.53083e-16 2.37364e-14 0
rhumerus -50.8643 26.4739 -100.635
rradius 122.365 0 0
rwrist -7.82666 0 0
rhand 20.5773 -0.930261 0
rfingers 7.12502 0 0
rthumb 45.2091 -745.863 0
919
root 2.55309 16.0189 32.4674 0.136608 18.1583 361.484
lfemur -22.1008 18.913 -12.752
ltibia 43.1519 0 0
lfoot -12.2978 -11.7673 0
ltoes 14.6634 0 0
rfemur -22.491 -8.60838 -5.13404
rtibia 67.3876 0 0
rfoot 4.66799 -22.4903 0
rtoes 24.9308 0 0
lowerback 2.10889 -1.58969 -3.36737
upperback -0.0436898 -2.20269 -3.21915
thorax -1.21656 -1.08269 -1.34641
lowerneck -6.97068 -6.13932 -1.8931
upperneck 4.48678 -8.37044 5.36864
head 2.9872 -4.00823 1.66277
lclavicle -4.70086e-16 2.20553e-14 0
lhumerus -52.0689 -36.9851 109.572
lradius 60.295 0 0
lwrist 13.352 0 0
lhand 32.7161 19.1027 0
lfingers 7.12502 0 0
lthumb 56.0033 35.5401 0
rclavicle -4.70086e-16 2.20553e-14 0
rhumerus -51.4854 28.0559 -98.8053
rradius 121.949 0 0
rwrist -7.69767 0 0
rhand 20.6846 -1.71038 0
rfingers 7.12502 0 0
rthumb 45.2959 -746.462 0
920
root 2.48343 15.9957 32.5118 0.502909 16.7778 361.8
lfemur -19.9998 16.3717 -11.2259
ltibia 39.6084 0 0
lfoot -11.7134 -15.2838 0
ltoes 14.6066 0 0
rfemur -22.5779 -8.0187 -5.54381
rtibia 64.7691 0 0
rfoot 4.37398 -20.836 0
rtoes 17.6419 0 0
lowerback 1.62982 -1.48973 -3.32479
upperback -0.157141 -2.05131 -3.61561
thorax -1.06714 -1.00946 -1.7897
lowerneck -6.98212 -5.74612 -1.67983
upperneck 4.43706 -7.86533 5.42553
head 2.95011 -3.75267 1.6696
lclavicle -7.01372e-16 1.98832e-14 0
lhumerus -52.1067 -37.125 109.144
lradius 60.0555 0 0
lwrist 13.8331 0 0
lhand 33.8377 19.922 0
lfingers 7.12502 0 0
lthumb 56.9563 35.3168 0
rclavicle -7.01372e-16 1.98832e-14 0
rhumerus -52.1368 30.0046 -96.4262
rradius 121.329 0 0
rwrist -7.5226 0 0
rhand 20.8314 -2.67371 0
rfingers 7.12502 0 0
rthumb 45.4166 -747.203 0
921
root 2.41377 15.9725 32.5562 0.987525 15.0428 362.198
lfemur -17.3992 13.2407 -9.32142
ltibia 35.2158 0 0
lfoot -11.0352 -19.5931 0
ltoes 14.4775 0 0
rfemur -22.5692 -7.28038 -6.14248
rtibia 61.4688 0 0
rfoot 3.93102 -18.8797 0
rtoes 8.71191 0 0
lowerback 1.00861 -1.36013 -3.25712
upperback -0.309642 -1.85444 -4.10755
thorax -0.880387 -0.914154 -2.35025
lowerneck -6.99374 -5.26095 -1.41587
upperneck 4.3692 -7.24151 5.49146
head 2.90197 -3.4374 1.67647
lclavicle -9.40631e-16 1.71728e-14 0
lhumerus -52.2109 -37.3017 108.677
lradius 59.7539 0 0
lwrist 14.4288 0 0
lhand 35.2334 20.9463 0
lfingers 7.12502 0 0
lthumb 58.1431 35.0498 0
rclavicle -9.40631e-16 1.71728e-14 0
rhumerus -52.818 32.3695 -93.449
rradius 120.492 0 0
rwrist -7.2929 0 0
rhand 21.0367 -3.82763 0
rfingers 7.12502 0 0
rthumb 45.5892 -748.086 0
922
root 2.34411 15.9493 32.6006 1.60477 12.9175 362.684
lfemur -14.2521 9.46348 -7.00047
ltibia 29.8927 0 0
lfoot -10.2552 -24.7723 0
ltoes 14.2706 0 0
rfemur -22.4416 -6.37594 -6.95861
rtibia 57.4131 0 0
rfoot 3.31982 -16.6039 0
rtoes -2.00823 0 0
lowerback 0.228354 -1.19741 -3.16091
upperback -0.506231 -1.60664 -4.70436
thorax -0.652375 -0.794143 -3.04037
lowerneck -7.00534 -4.67552 -1.09704
upperneck 4.28125 -6.48825 5.56723
head 2.84167 -3.05703 1.68347
lclavicle -1.18155e-15 1.38767e-14 0
lhumerus -52.3934 -37.518 108.175
lradius 59.3838 0 0
lwrist 15.1488 0 0
lhand 36.9314 22.1969 0
lfingers 7.12502 0 0
lthumb 59.5878 34.7355 0
rclavicle -1.18155e-15 1.38767e-14 0
rhumerus -53.5291 35.2001 -89.8249
rradius 119.426 0 0
rwrist -7.00003 0 0
rhand 21.3195 -5.17953 0
rfingers 7.12502 0 0
rthumb 45.8316 -749.115 0
923
root 2.27445 15.926 32.6449 2.36896 10.3659 363.268
lfemur -10.5117 4.98341 -4.22506
ltibia 23.5578 0 0
lfoot -9.36547 -30.8988 0
ltoes 13.9802 0 0
rfemur -22.1716 -5.28786 -8.02074
rtibia 52.5285 0 0
rfoot 2.52109 -13.9915 0
rtoes -14.6676 0 0
lowerback -0.727821 -0.998113 -3.0327
upperback -0.751944 -1.30252 -5.41541
thorax -0.379195 -0.646794 -3.87233
lowerneck -7.01674 -3.98157 -0.719142
upperneck 4.17124 -5.59484 5.65367
head 2.76807 -2.6062 1.69067
lclavicle -1.41782e-15 9.94744e-15 0
lhumerus -52.6655 -37.7771 107.639
lradius 58.9392 0 0
lwrist 16.003 0 0
lhand 38.9594 23.6952 0
lfingers 7.12502 0 0
lthumb 61.3141 34.3705 0
rclavicle -1.41782e-15 9.94744e-15 0
rhumerus -54.2696 38.5458 -85.5053
rradius 118.115 0 0
rwrist -6.63543 0 0
rhand 21.6991 -6.73679 0
rfingers 7.12502 0 0
rthumb 46.1617 -750.291 0
924
root 2.20479 15.9028 32.6893 3.29441 7.35214 363.956
lfemur -6.13097 -0.25598 -0.957177
ltibia 16.1296 0 0
lfoot -8.35824 -38.0497 0
ltoes 13.6007 0 0
rfemur -21.736 -3.99866 -9.35742
rtibia 46.7414 0 0
rfoot 1.51553 -11.025 0
rtoes -29.4154 0 0
lowerback -1.8768 -0.758755 -2.86905
upperback -1.05182 -0.936665 -6.25008
thorax -0.0569377 -0.46947 -4.85845
lowerneck -7.02774 -3.17084 -0.277966
upperneck 4.03722 -4.55056 5.7516
head 2.68008 -2.07953 1.69813
lclavicle -1.64314e-15 5.33767e-15 0
lhumerus -53.039 -38.0819 107.071
lradius 58.4138 0 0
lwrist 17.0012 0 0
lhand 41.3453 25.4626 0
lfingers 7.12502 0 0
lthumb 63.346 33.9511 0
rclavicle -1.64314e-15 5.33767e-15 0
rhumerus -55.0393 42.4562 -80.4413
rradius 116.547 0 0
rwrist -6.19054 0 0
rhand 22.1945 -8.50679 0
rfingers 7.12502 0 0
rthumb 46.5975 -751.617 0
925
root 2.13513 15.8796 32.7337 4.39544 3.84042 364.759
lfemur -1.06315 -6.31122 2.8412
ltibia 7.52681 0 0
lfoot -7.2256 -46.3024 0
ltoes 13.1266 0 0
rfemur -21.1112 -2.49084 -10.9972
rtibia 39.9781 0 0
rfoot 0.283837 -7.68699 0
rtoes -46.4005 0 0
lowerback -3.23548 -0.47587 -2.6665
upperback -1.41089 -0.503662 -7.21775
thorax 0.318308 -0.259537 -6.011
lowerneck -7.03814 -2.23507 0.230682
upperneck 3.87724 -3.34467 5.86185
head 2.57656 -1.47165 1.70594
lclavicle -1.85118e-15 0 0
lhumerus -53.5254 -38.4352 106.474
lradius 57.8015 0 0
lwrist 18.1533 0 0
lhand 44.117 27.5203 0
lfingers 7.12502 0 0
lthumb 65.7072 33.474 0
rclavicle -1.85118e-15 0 0
rhumerus -55.8381 46.9807 -74.5842
rradius 114.708 0 0
rwrist -5.65682 0 0
rhand 22.8247 -10.4969 0
rfingers 7.12502 0 0
rthumb 47.1569 -753.094 0
926
root 2.09016 15.8531 32.7354 4.55704 3.35896 364.849
lfemur -0.397274 -6.85662 3.26455
ltibia 6.48355 0 0
lfoot -7.44056 -46.6918 0
ltoes 12.3671 0 0
rfemur -21.1939 -2.53614 -11.1301
rtibia 39.3782 0 0
rfoot -0.176413 -7.14865 0
rtoes -48.174 0 0
lowerback -3.37003 -0.443326 -2.5912
upperback -1.45269 -0.456584 -7.3199
thorax 0.348299 -0.237283 -6.16374
lowerneck -7.03407 -2.09367 0.34744
upperneck 3.81731 -3.1619 5.8335
head 2.5483 -1.38136 1.68512
lclavicle -2.10514e-15 -1.30591e-15 0
lhumerus -53.6729 -38.5615 106.507
lradius 57.7016 0 0
lwrist 18.3906 0 0
lhand 44.3625 27.6962 0
lfingers 7.12502 0 0
lthumb 65.9192 33.4443 0
rclavicle -2.10514e-15 -1.30591e-15 0
rhumerus -54.9712 46.1215 -72.8051
rradius 113.135 0 0
rwrist -5.7783 0 0
rhand 21.8718 -11.3528 0
rfingers 7.12502 0 0
rthumb 46.2402 -754.006 0
